<mxfile host="app.diagrams.net" agent="Mozilla/5.0 (Macintosh; Intel Mac OS X 10_15_7) AppleWebKit/537.36 (KHTML, like Gecko) Chrome/140.0.0.0 Safari/537.36" version="28.2.1">
  <diagram name="Страница — 1" id="UANgS01j1kusMQ2d0yr-">
    <mxGraphModel dx="3245" dy="2015" grid="1" gridSize="10" guides="1" tooltips="1" connect="1" arrows="1" fold="1" page="1" pageScale="1" pageWidth="2336" pageHeight="1654" math="0" shadow="0">
      <root>
        <mxCell id="0" />
        <mxCell id="1" parent="0" />
        <mxCell id="h6YnTUncfw_HH36JmdnX-1" value="" style="rounded=0;whiteSpace=wrap;html=1;fillColor=#f5f5f5;fontColor=#333333;strokeColor=#666666;" vertex="1" parent="1">
          <mxGeometry x="10" y="10" width="120" height="400" as="geometry" />
        </mxCell>
        <mxCell id="h6YnTUncfw_HH36JmdnX-2" value="" style="endArrow=none;html=1;rounded=0;entryX=0.991;entryY=0.198;entryDx=0;entryDy=0;entryPerimeter=0;" edge="1" parent="1">
          <mxGeometry width="50" height="50" relative="1" as="geometry">
            <mxPoint x="10" y="170.8" as="sourcePoint" />
            <mxPoint x="128.92000000000007" y="170.00000000000006" as="targetPoint" />
          </mxGeometry>
        </mxCell>
        <mxCell id="h6YnTUncfw_HH36JmdnX-3" style="edgeStyle=orthogonalEdgeStyle;rounded=0;orthogonalLoop=1;jettySize=auto;html=1;exitX=0.5;exitY=1;exitDx=0;exitDy=0;" edge="1" parent="1" source="h6YnTUncfw_HH36JmdnX-1" target="h6YnTUncfw_HH36JmdnX-1">
          <mxGeometry relative="1" as="geometry" />
        </mxCell>
        <mxCell id="h6YnTUncfw_HH36JmdnX-4" value="" style="endArrow=none;html=1;rounded=0;entryX=0.991;entryY=0.198;entryDx=0;entryDy=0;entryPerimeter=0;" edge="1" parent="1">
          <mxGeometry width="50" height="50" relative="1" as="geometry">
            <mxPoint x="10" y="91" as="sourcePoint" />
            <mxPoint x="129" y="90" as="targetPoint" />
          </mxGeometry>
        </mxCell>
        <mxCell id="h6YnTUncfw_HH36JmdnX-5" value="" style="endArrow=none;html=1;rounded=0;entryX=0.991;entryY=0.198;entryDx=0;entryDy=0;entryPerimeter=0;" edge="1" parent="1">
          <mxGeometry width="50" height="50" relative="1" as="geometry">
            <mxPoint x="11" y="331" as="sourcePoint" />
            <mxPoint x="130" y="330" as="targetPoint" />
          </mxGeometry>
        </mxCell>
        <mxCell id="h6YnTUncfw_HH36JmdnX-6" value="&lt;font style=&quot;font-size: 17px;&quot;&gt;Split 1&lt;/font&gt;" style="text;html=1;align=center;verticalAlign=middle;whiteSpace=wrap;rounded=0;" vertex="1" parent="1">
          <mxGeometry x="40" y="30" width="60" height="30" as="geometry" />
        </mxCell>
        <mxCell id="h6YnTUncfw_HH36JmdnX-7" value="&lt;font style=&quot;font-size: 17px;&quot;&gt;Split 2&lt;/font&gt;" style="text;html=1;align=center;verticalAlign=middle;whiteSpace=wrap;rounded=0;" vertex="1" parent="1">
          <mxGeometry x="40" y="110" width="60" height="30" as="geometry" />
        </mxCell>
        <mxCell id="h6YnTUncfw_HH36JmdnX-8" value="&lt;font style=&quot;font-size: 17px;&quot;&gt;Split n&lt;/font&gt;" style="text;html=1;align=center;verticalAlign=middle;whiteSpace=wrap;rounded=0;" vertex="1" parent="1">
          <mxGeometry x="40" y="360" width="60" height="30" as="geometry" />
        </mxCell>
        <mxCell id="h6YnTUncfw_HH36JmdnX-9" value="&lt;font style=&quot;font-size: 23px;&quot;&gt;...&lt;/font&gt;" style="text;html=1;align=center;verticalAlign=middle;whiteSpace=wrap;rounded=0;" vertex="1" parent="1">
          <mxGeometry x="40" y="230" width="60" height="30" as="geometry" />
        </mxCell>
        <mxCell id="h6YnTUncfw_HH36JmdnX-10" value="&lt;font style=&quot;font-size: 20px;&quot;&gt;Worker&lt;/font&gt;" style="rounded=0;whiteSpace=wrap;html=1;fillColor=#dae8fc;strokeColor=#6c8ebf;" vertex="1" parent="1">
          <mxGeometry x="190" y="80" width="120" height="60" as="geometry" />
        </mxCell>
        <mxCell id="h6YnTUncfw_HH36JmdnX-11" value="&lt;font style=&quot;font-size: 20px;&quot;&gt;Worker&lt;/font&gt;" style="rounded=0;whiteSpace=wrap;html=1;fillColor=#dae8fc;strokeColor=#6c8ebf;" vertex="1" parent="1">
          <mxGeometry x="190" y="180" width="120" height="60" as="geometry" />
        </mxCell>
        <mxCell id="h6YnTUncfw_HH36JmdnX-12" value="&lt;font style=&quot;font-size: 20px;&quot;&gt;Worker&lt;/font&gt;" style="rounded=0;whiteSpace=wrap;html=1;fillColor=#dae8fc;strokeColor=#6c8ebf;" vertex="1" parent="1">
          <mxGeometry x="190" y="280" width="120" height="60" as="geometry" />
        </mxCell>
        <mxCell id="h6YnTUncfw_HH36JmdnX-13" value="" style="endArrow=classic;html=1;rounded=0;entryX=0;entryY=0.5;entryDx=0;entryDy=0;" edge="1" parent="1" target="h6YnTUncfw_HH36JmdnX-10">
          <mxGeometry width="50" height="50" relative="1" as="geometry">
            <mxPoint x="130" y="50" as="sourcePoint" />
            <mxPoint x="180" as="targetPoint" />
          </mxGeometry>
        </mxCell>
        <mxCell id="h6YnTUncfw_HH36JmdnX-14" value="" style="endArrow=classic;html=1;rounded=0;entryX=0;entryY=0.5;entryDx=0;entryDy=0;" edge="1" parent="1" target="h6YnTUncfw_HH36JmdnX-11">
          <mxGeometry width="50" height="50" relative="1" as="geometry">
            <mxPoint x="130" y="130" as="sourcePoint" />
            <mxPoint x="200" y="190" as="targetPoint" />
          </mxGeometry>
        </mxCell>
        <mxCell id="h6YnTUncfw_HH36JmdnX-15" value="" style="endArrow=classic;html=1;rounded=0;entryX=0;entryY=0.5;entryDx=0;entryDy=0;exitX=1.003;exitY=0.893;exitDx=0;exitDy=0;exitPerimeter=0;" edge="1" parent="1" source="h6YnTUncfw_HH36JmdnX-1" target="h6YnTUncfw_HH36JmdnX-12">
          <mxGeometry width="50" height="50" relative="1" as="geometry">
            <mxPoint x="130" y="390" as="sourcePoint" />
            <mxPoint x="200" y="470" as="targetPoint" />
          </mxGeometry>
        </mxCell>
        <mxCell id="h6YnTUncfw_HH36JmdnX-17" value="Part 2" style="rounded=0;whiteSpace=wrap;html=1;fillColor=#f5f5f5;fontColor=#333333;strokeColor=#666666;" vertex="1" parent="1">
          <mxGeometry x="370" y="111.25" width="100" height="15" as="geometry" />
        </mxCell>
        <mxCell id="h6YnTUncfw_HH36JmdnX-22" value="Part 1" style="rounded=0;whiteSpace=wrap;html=1;fillColor=#f5f5f5;fontColor=#333333;strokeColor=#666666;" vertex="1" parent="1">
          <mxGeometry x="370" y="93.75" width="100" height="15" as="geometry" />
        </mxCell>
        <mxCell id="h6YnTUncfw_HH36JmdnX-23" value="Part 2" style="rounded=0;whiteSpace=wrap;html=1;fillColor=#f5f5f5;fontColor=#333333;strokeColor=#666666;" vertex="1" parent="1">
          <mxGeometry x="370" y="211.25" width="100" height="15" as="geometry" />
        </mxCell>
        <mxCell id="h6YnTUncfw_HH36JmdnX-24" value="Part 1" style="rounded=0;whiteSpace=wrap;html=1;fillColor=#f5f5f5;fontColor=#333333;strokeColor=#666666;" vertex="1" parent="1">
          <mxGeometry x="370" y="193.75" width="100" height="15" as="geometry" />
        </mxCell>
        <mxCell id="h6YnTUncfw_HH36JmdnX-25" value="Part 2" style="rounded=0;whiteSpace=wrap;html=1;fillColor=#f5f5f5;fontColor=#333333;strokeColor=#666666;" vertex="1" parent="1">
          <mxGeometry x="370" y="311.25" width="100" height="15" as="geometry" />
        </mxCell>
        <mxCell id="h6YnTUncfw_HH36JmdnX-26" value="Part 1" style="rounded=0;whiteSpace=wrap;html=1;fillColor=#f5f5f5;fontColor=#333333;strokeColor=#666666;" vertex="1" parent="1">
          <mxGeometry x="370" y="293.75" width="100" height="15" as="geometry" />
        </mxCell>
        <mxCell id="h6YnTUncfw_HH36JmdnX-28" style="edgeStyle=orthogonalEdgeStyle;rounded=0;orthogonalLoop=1;jettySize=auto;html=1;exitX=1;exitY=0.5;exitDx=0;exitDy=0;" edge="1" parent="1">
          <mxGeometry relative="1" as="geometry">
            <mxPoint x="364.9999999999998" y="111.36764705882354" as="targetPoint" />
            <mxPoint x="315" y="111.25" as="sourcePoint" />
            <Array as="points">
              <mxPoint x="340" y="111.25" />
              <mxPoint x="340" y="111.25" />
            </Array>
          </mxGeometry>
        </mxCell>
        <mxCell id="h6YnTUncfw_HH36JmdnX-29" style="edgeStyle=orthogonalEdgeStyle;rounded=0;orthogonalLoop=1;jettySize=auto;html=1;exitX=1;exitY=0.5;exitDx=0;exitDy=0;" edge="1" parent="1">
          <mxGeometry relative="1" as="geometry">
            <mxPoint x="364.9999999999998" y="210.00764705882355" as="targetPoint" />
            <mxPoint x="315" y="209.89000000000001" as="sourcePoint" />
            <Array as="points">
              <mxPoint x="340" y="209.89000000000001" />
              <mxPoint x="340" y="209.89000000000001" />
            </Array>
          </mxGeometry>
        </mxCell>
        <mxCell id="h6YnTUncfw_HH36JmdnX-30" style="edgeStyle=orthogonalEdgeStyle;rounded=0;orthogonalLoop=1;jettySize=auto;html=1;exitX=1;exitY=0.5;exitDx=0;exitDy=0;" edge="1" parent="1">
          <mxGeometry relative="1" as="geometry">
            <mxPoint x="363.9999999999998" y="310.1476470588235" as="targetPoint" />
            <mxPoint x="314" y="310.03" as="sourcePoint" />
            <Array as="points">
              <mxPoint x="339" y="310.03" />
              <mxPoint x="339" y="310.03" />
            </Array>
          </mxGeometry>
        </mxCell>
        <mxCell id="h6YnTUncfw_HH36JmdnX-31" value="&lt;font style=&quot;font-size: 20px;&quot;&gt;Worker&lt;/font&gt;" style="rounded=0;whiteSpace=wrap;html=1;fillColor=#dae8fc;strokeColor=#6c8ebf;" vertex="1" parent="1">
          <mxGeometry x="605" y="126.87" width="120" height="60" as="geometry" />
        </mxCell>
        <mxCell id="h6YnTUncfw_HH36JmdnX-32" value="&lt;font style=&quot;font-size: 20px;&quot;&gt;Worker&lt;/font&gt;" style="rounded=0;whiteSpace=wrap;html=1;fillColor=#dae8fc;strokeColor=#6c8ebf;" vertex="1" parent="1">
          <mxGeometry x="605" y="215.62" width="120" height="60" as="geometry" />
        </mxCell>
        <mxCell id="h6YnTUncfw_HH36JmdnX-33" value="" style="endArrow=classic;html=1;rounded=0;exitX=1;exitY=0.5;exitDx=0;exitDy=0;entryX=0;entryY=0.5;entryDx=0;entryDy=0;" edge="1" parent="1" source="h6YnTUncfw_HH36JmdnX-32" target="h6YnTUncfw_HH36JmdnX-37">
          <mxGeometry width="50" height="50" relative="1" as="geometry">
            <mxPoint x="775" y="270" as="sourcePoint" />
            <mxPoint x="825" y="246" as="targetPoint" />
          </mxGeometry>
        </mxCell>
        <mxCell id="h6YnTUncfw_HH36JmdnX-34" value="" style="endArrow=classic;html=1;rounded=0;exitX=1;exitY=0.5;exitDx=0;exitDy=0;entryX=0;entryY=0.5;entryDx=0;entryDy=0;" edge="1" parent="1" target="h6YnTUncfw_HH36JmdnX-36">
          <mxGeometry width="50" height="50" relative="1" as="geometry">
            <mxPoint x="725" y="156.56" as="sourcePoint" />
            <mxPoint x="825" y="157" as="targetPoint" />
          </mxGeometry>
        </mxCell>
        <mxCell id="h6YnTUncfw_HH36JmdnX-36" value="&lt;font style=&quot;font-size: 15px;&quot;&gt;Output&lt;/font&gt;&lt;div&gt;&lt;font style=&quot;font-size: 15px;&quot;&gt;File 1&lt;/font&gt;&lt;/div&gt;" style="rounded=0;whiteSpace=wrap;html=1;fillColor=#f5f5f5;fontColor=#333333;strokeColor=#666666;" vertex="1" parent="1">
          <mxGeometry x="770" y="136.56" width="70" height="40" as="geometry" />
        </mxCell>
        <mxCell id="h6YnTUncfw_HH36JmdnX-37" value="&lt;font style=&quot;font-size: 15px;&quot;&gt;Output&lt;/font&gt;&lt;div&gt;&lt;font style=&quot;font-size: 15px;&quot;&gt;File 2&lt;/font&gt;&lt;/div&gt;" style="rounded=0;whiteSpace=wrap;html=1;fillColor=#f5f5f5;fontColor=#333333;strokeColor=#666666;" vertex="1" parent="1">
          <mxGeometry x="770" y="225.94" width="70" height="40" as="geometry" />
        </mxCell>
        <mxCell id="h6YnTUncfw_HH36JmdnX-42" value="" style="endArrow=classic;html=1;rounded=0;exitX=1;exitY=0.5;exitDx=0;exitDy=0;entryX=0;entryY=0.5;entryDx=0;entryDy=0;" edge="1" parent="1" source="h6YnTUncfw_HH36JmdnX-25" target="h6YnTUncfw_HH36JmdnX-32">
          <mxGeometry width="50" height="50" relative="1" as="geometry">
            <mxPoint x="470" y="330" as="sourcePoint" />
            <mxPoint x="520" y="280" as="targetPoint" />
          </mxGeometry>
        </mxCell>
        <mxCell id="h6YnTUncfw_HH36JmdnX-43" value="" style="endArrow=classic;html=1;rounded=0;exitX=1;exitY=0.5;exitDx=0;exitDy=0;entryX=0;entryY=0.5;entryDx=0;entryDy=0;" edge="1" parent="1" source="h6YnTUncfw_HH36JmdnX-23" target="h6YnTUncfw_HH36JmdnX-32">
          <mxGeometry width="50" height="50" relative="1" as="geometry">
            <mxPoint x="470" y="223" as="sourcePoint" />
            <mxPoint x="570" y="150" as="targetPoint" />
          </mxGeometry>
        </mxCell>
        <mxCell id="h6YnTUncfw_HH36JmdnX-44" value="" style="endArrow=classic;html=1;rounded=0;exitX=1;exitY=0.5;exitDx=0;exitDy=0;entryX=0;entryY=0.5;entryDx=0;entryDy=0;" edge="1" parent="1" source="h6YnTUncfw_HH36JmdnX-17" target="h6YnTUncfw_HH36JmdnX-32">
          <mxGeometry width="50" height="50" relative="1" as="geometry">
            <mxPoint x="470" y="166.75" as="sourcePoint" />
            <mxPoint x="570" y="250" as="targetPoint" />
          </mxGeometry>
        </mxCell>
        <mxCell id="h6YnTUncfw_HH36JmdnX-45" value="" style="endArrow=classic;html=1;rounded=0;entryX=0;entryY=0.5;entryDx=0;entryDy=0;exitX=1;exitY=0.5;exitDx=0;exitDy=0;" edge="1" parent="1" source="h6YnTUncfw_HH36JmdnX-24" target="h6YnTUncfw_HH36JmdnX-31">
          <mxGeometry width="50" height="50" relative="1" as="geometry">
            <mxPoint x="460" y="177" as="sourcePoint" />
            <mxPoint x="560" y="103.87" as="targetPoint" />
          </mxGeometry>
        </mxCell>
        <mxCell id="h6YnTUncfw_HH36JmdnX-47" value="" style="endArrow=classic;html=1;rounded=0;exitX=1;exitY=0.5;exitDx=0;exitDy=0;entryX=0;entryY=0.5;entryDx=0;entryDy=0;" edge="1" parent="1" source="h6YnTUncfw_HH36JmdnX-22" target="h6YnTUncfw_HH36JmdnX-31">
          <mxGeometry width="50" height="50" relative="1" as="geometry">
            <mxPoint x="590" y="283" as="sourcePoint" />
            <mxPoint x="570" y="160" as="targetPoint" />
          </mxGeometry>
        </mxCell>
        <mxCell id="h6YnTUncfw_HH36JmdnX-48" value="" style="endArrow=classic;html=1;rounded=0;entryX=0;entryY=0.5;entryDx=0;entryDy=0;exitX=1;exitY=0.5;exitDx=0;exitDy=0;" edge="1" parent="1" source="h6YnTUncfw_HH36JmdnX-26" target="h6YnTUncfw_HH36JmdnX-31">
          <mxGeometry width="50" height="50" relative="1" as="geometry">
            <mxPoint x="610" y="263" as="sourcePoint" />
            <mxPoint x="710" y="190" as="targetPoint" />
          </mxGeometry>
        </mxCell>
        <mxCell id="h6YnTUncfw_HH36JmdnX-49" value="" style="endArrow=classic;startArrow=classic;html=1;rounded=0;strokeWidth=3;" edge="1" parent="1">
          <mxGeometry width="50" height="50" relative="1" as="geometry">
            <mxPoint x="10" y="469" as="sourcePoint" />
            <mxPoint x="840" y="470" as="targetPoint" />
          </mxGeometry>
        </mxCell>
        <mxCell id="h6YnTUncfw_HH36JmdnX-50" value="&lt;font style=&quot;font-size: 16px;&quot;&gt;&lt;b style=&quot;&quot;&gt;Input Data&lt;/b&gt;&lt;/font&gt;" style="text;html=1;align=center;verticalAlign=middle;resizable=0;points=[];autosize=1;strokeColor=none;fillColor=none;" vertex="1" parent="1">
          <mxGeometry x="30" y="429" width="100" height="30" as="geometry" />
        </mxCell>
        <mxCell id="h6YnTUncfw_HH36JmdnX-51" value="&lt;font style=&quot;font-size: 16px;&quot;&gt;&lt;b style=&quot;&quot;&gt;Map Phase&lt;/b&gt;&lt;/font&gt;" style="text;html=1;align=center;verticalAlign=middle;resizable=0;points=[];autosize=1;strokeColor=none;fillColor=none;" vertex="1" parent="1">
          <mxGeometry x="190" y="429" width="110" height="30" as="geometry" />
        </mxCell>
        <mxCell id="h6YnTUncfw_HH36JmdnX-52" value="&lt;font style=&quot;font-size: 16px;&quot;&gt;&lt;b style=&quot;&quot;&gt;Intermediate&lt;br&gt;files&lt;/b&gt;&lt;/font&gt;" style="text;html=1;align=center;verticalAlign=middle;resizable=0;points=[];autosize=1;strokeColor=none;fillColor=none;" vertex="1" parent="1">
          <mxGeometry x="350" y="419" width="120" height="50" as="geometry" />
        </mxCell>
        <mxCell id="h6YnTUncfw_HH36JmdnX-53" value="&lt;font style=&quot;font-size: 16px;&quot;&gt;&lt;b style=&quot;&quot;&gt;Reduce Phase&lt;/b&gt;&lt;/font&gt;" style="text;html=1;align=center;verticalAlign=middle;resizable=0;points=[];autosize=1;strokeColor=none;fillColor=none;" vertex="1" parent="1">
          <mxGeometry x="605" y="429" width="130" height="30" as="geometry" />
        </mxCell>
        <mxCell id="h6YnTUncfw_HH36JmdnX-54" value="&lt;font style=&quot;font-size: 16px;&quot;&gt;&lt;b style=&quot;&quot;&gt;Output&lt;br&gt;data&lt;/b&gt;&lt;/font&gt;" style="text;html=1;align=center;verticalAlign=middle;resizable=0;points=[];autosize=1;strokeColor=none;fillColor=none;" vertex="1" parent="1">
          <mxGeometry x="750" y="419" width="80" height="50" as="geometry" />
        </mxCell>
        <mxCell id="h6YnTUncfw_HH36JmdnX-55" value="&lt;font style=&quot;font-size: 16px;&quot;&gt;&lt;b style=&quot;&quot;&gt;Shuffle&lt;/b&gt;&lt;/font&gt;" style="text;html=1;align=center;verticalAlign=middle;resizable=0;points=[];autosize=1;strokeColor=none;fillColor=none;" vertex="1" parent="1">
          <mxGeometry x="498" y="429" width="80" height="30" as="geometry" />
        </mxCell>
        <mxCell id="h6YnTUncfw_HH36JmdnX-56" value="" style="endArrow=none;html=1;rounded=0;" edge="1" parent="1">
          <mxGeometry width="50" height="50" relative="1" as="geometry">
            <mxPoint x="150" y="490" as="sourcePoint" />
            <mxPoint x="150" y="450" as="targetPoint" />
          </mxGeometry>
        </mxCell>
        <mxCell id="h6YnTUncfw_HH36JmdnX-57" value="" style="endArrow=none;html=1;rounded=0;" edge="1" parent="1">
          <mxGeometry width="50" height="50" relative="1" as="geometry">
            <mxPoint x="330" y="490" as="sourcePoint" />
            <mxPoint x="330" y="450" as="targetPoint" />
          </mxGeometry>
        </mxCell>
        <mxCell id="h6YnTUncfw_HH36JmdnX-58" value="" style="endArrow=none;html=1;rounded=0;" edge="1" parent="1">
          <mxGeometry width="50" height="50" relative="1" as="geometry">
            <mxPoint x="490" y="490" as="sourcePoint" />
            <mxPoint x="490" y="450" as="targetPoint" />
          </mxGeometry>
        </mxCell>
        <mxCell id="h6YnTUncfw_HH36JmdnX-59" value="" style="endArrow=none;html=1;rounded=0;" edge="1" parent="1">
          <mxGeometry width="50" height="50" relative="1" as="geometry">
            <mxPoint x="590" y="490" as="sourcePoint" />
            <mxPoint x="590" y="450" as="targetPoint" />
          </mxGeometry>
        </mxCell>
        <mxCell id="h6YnTUncfw_HH36JmdnX-60" value="" style="endArrow=none;html=1;rounded=0;" edge="1" parent="1">
          <mxGeometry width="50" height="50" relative="1" as="geometry">
            <mxPoint x="750" y="490" as="sourcePoint" />
            <mxPoint x="750" y="450" as="targetPoint" />
          </mxGeometry>
        </mxCell>
        <mxCell id="h6YnTUncfw_HH36JmdnX-61" value="" style="rounded=0;whiteSpace=wrap;html=1;fillColor=#f5f5f5;fontColor=#333333;strokeColor=#666666;" vertex="1" parent="1">
          <mxGeometry x="10" y="560" width="120" height="240" as="geometry" />
        </mxCell>
        <mxCell id="h6YnTUncfw_HH36JmdnX-62" value="" style="endArrow=none;html=1;rounded=0;" edge="1" parent="1">
          <mxGeometry width="50" height="50" relative="1" as="geometry">
            <mxPoint x="10" y="720.8" as="sourcePoint" />
            <mxPoint x="130" y="720" as="targetPoint" />
          </mxGeometry>
        </mxCell>
        <mxCell id="h6YnTUncfw_HH36JmdnX-63" style="edgeStyle=orthogonalEdgeStyle;rounded=0;orthogonalLoop=1;jettySize=auto;html=1;exitX=0.5;exitY=1;exitDx=0;exitDy=0;" edge="1" parent="1" source="h6YnTUncfw_HH36JmdnX-61" target="h6YnTUncfw_HH36JmdnX-61">
          <mxGeometry relative="1" as="geometry" />
        </mxCell>
        <mxCell id="h6YnTUncfw_HH36JmdnX-64" value="" style="endArrow=none;html=1;rounded=0;" edge="1" parent="1">
          <mxGeometry width="50" height="50" relative="1" as="geometry">
            <mxPoint x="10" y="641" as="sourcePoint" />
            <mxPoint x="130" y="640" as="targetPoint" />
          </mxGeometry>
        </mxCell>
        <mxCell id="h6YnTUncfw_HH36JmdnX-66" value="&lt;span style=&quot;font-size: 17px;&quot;&gt;a:1&lt;br&gt;b:2&lt;br&gt;c:3&lt;/span&gt;" style="text;html=1;align=center;verticalAlign=middle;whiteSpace=wrap;rounded=0;" vertex="1" parent="1">
          <mxGeometry x="40" y="588" width="60" height="30" as="geometry" />
        </mxCell>
        <mxCell id="h6YnTUncfw_HH36JmdnX-67" value="&lt;span style=&quot;font-size: 17px;&quot;&gt;c:6&lt;br&gt;a:5&lt;/span&gt;&lt;div&gt;&lt;span style=&quot;font-size: 17px;&quot;&gt;c:2&lt;/span&gt;&lt;/div&gt;" style="text;html=1;align=center;verticalAlign=middle;whiteSpace=wrap;rounded=0;" vertex="1" parent="1">
          <mxGeometry x="40" y="664.25" width="60" height="30" as="geometry" />
        </mxCell>
        <mxCell id="h6YnTUncfw_HH36JmdnX-68" value="&lt;font style=&quot;font-size: 17px;&quot;&gt;b:7&lt;br&gt;c:8&lt;/font&gt;" style="text;html=1;align=center;verticalAlign=middle;whiteSpace=wrap;rounded=0;" vertex="1" parent="1">
          <mxGeometry x="40" y="746.25" width="60" height="30" as="geometry" />
        </mxCell>
        <mxCell id="h6YnTUncfw_HH36JmdnX-70" value="&lt;font style=&quot;font-size: 20px;&quot;&gt;Mapper 1&lt;/font&gt;" style="rounded=0;whiteSpace=wrap;html=1;fillColor=#dae8fc;strokeColor=#6c8ebf;" vertex="1" parent="1">
          <mxGeometry x="190" y="570" width="120" height="60" as="geometry" />
        </mxCell>
        <mxCell id="h6YnTUncfw_HH36JmdnX-71" value="&lt;font style=&quot;font-size: 20px;&quot;&gt;Mapper 2&lt;/font&gt;" style="rounded=0;whiteSpace=wrap;html=1;fillColor=#dae8fc;strokeColor=#6c8ebf;" vertex="1" parent="1">
          <mxGeometry x="190" y="650" width="120" height="60" as="geometry" />
        </mxCell>
        <mxCell id="h6YnTUncfw_HH36JmdnX-72" value="&lt;font style=&quot;font-size: 20px;&quot;&gt;Mapper 3&lt;/font&gt;" style="rounded=0;whiteSpace=wrap;html=1;fillColor=#dae8fc;strokeColor=#6c8ebf;" vertex="1" parent="1">
          <mxGeometry x="190" y="729.25" width="120" height="60" as="geometry" />
        </mxCell>
        <mxCell id="h6YnTUncfw_HH36JmdnX-73" value="" style="endArrow=classic;html=1;rounded=0;entryX=0;entryY=0.5;entryDx=0;entryDy=0;" edge="1" parent="1" target="h6YnTUncfw_HH36JmdnX-70">
          <mxGeometry width="50" height="50" relative="1" as="geometry">
            <mxPoint x="130" y="600" as="sourcePoint" />
            <mxPoint x="180" y="550" as="targetPoint" />
          </mxGeometry>
        </mxCell>
        <mxCell id="h6YnTUncfw_HH36JmdnX-76" value="(b, 2)" style="rounded=0;whiteSpace=wrap;html=1;fillColor=#f5f5f5;fontColor=#333333;strokeColor=#666666;" vertex="1" parent="1">
          <mxGeometry x="370" y="600.94" width="100" height="15" as="geometry" />
        </mxCell>
        <mxCell id="h6YnTUncfw_HH36JmdnX-77" value="(a, 1), (c, 3)" style="rounded=0;whiteSpace=wrap;html=1;fillColor=#f5f5f5;fontColor=#333333;strokeColor=#666666;" vertex="1" parent="1">
          <mxGeometry x="370" y="583.44" width="100" height="15" as="geometry" />
        </mxCell>
        <mxCell id="h6YnTUncfw_HH36JmdnX-78" value="" style="rounded=0;whiteSpace=wrap;html=1;fillColor=#f5f5f5;fontColor=#333333;strokeColor=#666666;" vertex="1" parent="1">
          <mxGeometry x="370" y="681.75" width="100" height="15" as="geometry" />
        </mxCell>
        <mxCell id="h6YnTUncfw_HH36JmdnX-79" value="(a, 5), (c, 6), (c, 2)" style="rounded=0;whiteSpace=wrap;html=1;fillColor=#f5f5f5;fontColor=#333333;strokeColor=#666666;" vertex="1" parent="1">
          <mxGeometry x="370" y="664.25" width="100" height="15" as="geometry" />
        </mxCell>
        <mxCell id="h6YnTUncfw_HH36JmdnX-80" value="(b, 7)" style="rounded=0;whiteSpace=wrap;html=1;fillColor=#f5f5f5;fontColor=#333333;strokeColor=#666666;" vertex="1" parent="1">
          <mxGeometry x="370" y="761.5" width="100" height="15" as="geometry" />
        </mxCell>
        <mxCell id="h6YnTUncfw_HH36JmdnX-81" value="(c, 8)" style="rounded=0;whiteSpace=wrap;html=1;fillColor=#f5f5f5;fontColor=#333333;strokeColor=#666666;" vertex="1" parent="1">
          <mxGeometry x="370" y="744" width="100" height="15" as="geometry" />
        </mxCell>
        <mxCell id="h6YnTUncfw_HH36JmdnX-82" style="edgeStyle=orthogonalEdgeStyle;rounded=0;orthogonalLoop=1;jettySize=auto;html=1;exitX=1;exitY=0.5;exitDx=0;exitDy=0;" edge="1" parent="1">
          <mxGeometry relative="1" as="geometry">
            <mxPoint x="364.9999999999998" y="601.0576470588235" as="targetPoint" />
            <mxPoint x="315" y="600.94" as="sourcePoint" />
            <Array as="points">
              <mxPoint x="340" y="600.94" />
              <mxPoint x="340" y="600.94" />
            </Array>
          </mxGeometry>
        </mxCell>
        <mxCell id="h6YnTUncfw_HH36JmdnX-83" style="edgeStyle=orthogonalEdgeStyle;rounded=0;orthogonalLoop=1;jettySize=auto;html=1;exitX=1;exitY=0.5;exitDx=0;exitDy=0;" edge="1" parent="1">
          <mxGeometry relative="1" as="geometry">
            <mxPoint x="364.9999999999998" y="680.5076470588235" as="targetPoint" />
            <mxPoint x="315" y="680.3899999999999" as="sourcePoint" />
            <Array as="points">
              <mxPoint x="340" y="680.3899999999999" />
              <mxPoint x="340" y="680.3899999999999" />
            </Array>
          </mxGeometry>
        </mxCell>
        <mxCell id="h6YnTUncfw_HH36JmdnX-84" style="edgeStyle=orthogonalEdgeStyle;rounded=0;orthogonalLoop=1;jettySize=auto;html=1;exitX=1;exitY=0.5;exitDx=0;exitDy=0;" edge="1" parent="1">
          <mxGeometry relative="1" as="geometry">
            <mxPoint x="363.9999999999998" y="760.3976470588234" as="targetPoint" />
            <mxPoint x="314" y="760.28" as="sourcePoint" />
            <Array as="points">
              <mxPoint x="339" y="760.28" />
              <mxPoint x="339" y="760.28" />
            </Array>
          </mxGeometry>
        </mxCell>
        <mxCell id="h6YnTUncfw_HH36JmdnX-85" value="&lt;font style=&quot;font-size: 20px;&quot;&gt;Reducer 1&lt;/font&gt;" style="rounded=0;whiteSpace=wrap;html=1;fillColor=#dae8fc;strokeColor=#6c8ebf;" vertex="1" parent="1">
          <mxGeometry x="605" y="605.63" width="120" height="60" as="geometry" />
        </mxCell>
        <mxCell id="h6YnTUncfw_HH36JmdnX-86" value="&lt;font style=&quot;font-size: 20px;&quot;&gt;Reducer 2&lt;/font&gt;" style="rounded=0;whiteSpace=wrap;html=1;fillColor=#dae8fc;strokeColor=#6c8ebf;" vertex="1" parent="1">
          <mxGeometry x="605" y="694.38" width="120" height="60" as="geometry" />
        </mxCell>
        <mxCell id="h6YnTUncfw_HH36JmdnX-87" value="" style="endArrow=classic;html=1;rounded=0;exitX=1;exitY=0.5;exitDx=0;exitDy=0;entryX=0;entryY=0.5;entryDx=0;entryDy=0;" edge="1" parent="1" source="h6YnTUncfw_HH36JmdnX-86" target="h6YnTUncfw_HH36JmdnX-90">
          <mxGeometry width="50" height="50" relative="1" as="geometry">
            <mxPoint x="775" y="748.76" as="sourcePoint" />
            <mxPoint x="825" y="724.76" as="targetPoint" />
          </mxGeometry>
        </mxCell>
        <mxCell id="h6YnTUncfw_HH36JmdnX-88" value="" style="endArrow=classic;html=1;rounded=0;exitX=1;exitY=0.5;exitDx=0;exitDy=0;entryX=0;entryY=0.5;entryDx=0;entryDy=0;" edge="1" parent="1" target="h6YnTUncfw_HH36JmdnX-89">
          <mxGeometry width="50" height="50" relative="1" as="geometry">
            <mxPoint x="725" y="635.3199999999999" as="sourcePoint" />
            <mxPoint x="825" y="635.76" as="targetPoint" />
          </mxGeometry>
        </mxCell>
        <mxCell id="h6YnTUncfw_HH36JmdnX-89" value="&lt;span style=&quot;font-size: 15px;&quot;&gt;(a, 6)&lt;br&gt;(c, 19&lt;/span&gt;&lt;span style=&quot;font-size: 15px; background-color: transparent; color: light-dark(rgb(51, 51, 51), rgb(193, 193, 193));&quot;&gt;)&lt;/span&gt;" style="rounded=0;whiteSpace=wrap;html=1;fillColor=#f5f5f5;fontColor=#333333;strokeColor=#666666;" vertex="1" parent="1">
          <mxGeometry x="770" y="615.3199999999999" width="70" height="40" as="geometry" />
        </mxCell>
        <mxCell id="h6YnTUncfw_HH36JmdnX-90" value="&lt;span style=&quot;font-size: 15px;&quot;&gt;(b, 9)&lt;/span&gt;" style="rounded=0;whiteSpace=wrap;html=1;fillColor=#f5f5f5;fontColor=#333333;strokeColor=#666666;" vertex="1" parent="1">
          <mxGeometry x="770" y="704.7" width="70" height="40" as="geometry" />
        </mxCell>
        <mxCell id="h6YnTUncfw_HH36JmdnX-91" value="" style="endArrow=classic;html=1;rounded=0;exitX=1;exitY=0.5;exitDx=0;exitDy=0;entryX=0;entryY=0.5;entryDx=0;entryDy=0;" edge="1" parent="1" source="h6YnTUncfw_HH36JmdnX-80" target="h6YnTUncfw_HH36JmdnX-86">
          <mxGeometry width="50" height="50" relative="1" as="geometry">
            <mxPoint x="470" y="880" as="sourcePoint" />
            <mxPoint x="520" y="830" as="targetPoint" />
          </mxGeometry>
        </mxCell>
        <mxCell id="h6YnTUncfw_HH36JmdnX-92" value="" style="endArrow=classic;html=1;rounded=0;exitX=1;exitY=0.5;exitDx=0;exitDy=0;entryX=0;entryY=0.5;entryDx=0;entryDy=0;" edge="1" parent="1" source="h6YnTUncfw_HH36JmdnX-78" target="h6YnTUncfw_HH36JmdnX-86">
          <mxGeometry width="50" height="50" relative="1" as="geometry">
            <mxPoint x="470" y="773" as="sourcePoint" />
            <mxPoint x="570" y="700" as="targetPoint" />
          </mxGeometry>
        </mxCell>
        <mxCell id="h6YnTUncfw_HH36JmdnX-93" value="" style="endArrow=classic;html=1;rounded=0;exitX=1;exitY=0.5;exitDx=0;exitDy=0;entryX=0;entryY=0.5;entryDx=0;entryDy=0;" edge="1" parent="1" source="h6YnTUncfw_HH36JmdnX-76" target="h6YnTUncfw_HH36JmdnX-86">
          <mxGeometry width="50" height="50" relative="1" as="geometry">
            <mxPoint x="470" y="716.75" as="sourcePoint" />
            <mxPoint x="570" y="800" as="targetPoint" />
          </mxGeometry>
        </mxCell>
        <mxCell id="h6YnTUncfw_HH36JmdnX-94" value="" style="endArrow=classic;html=1;rounded=0;entryX=0;entryY=0.5;entryDx=0;entryDy=0;exitX=1;exitY=0.5;exitDx=0;exitDy=0;" edge="1" parent="1" source="h6YnTUncfw_HH36JmdnX-79" target="h6YnTUncfw_HH36JmdnX-85">
          <mxGeometry width="50" height="50" relative="1" as="geometry">
            <mxPoint x="460" y="727" as="sourcePoint" />
            <mxPoint x="560" y="653.87" as="targetPoint" />
          </mxGeometry>
        </mxCell>
        <mxCell id="h6YnTUncfw_HH36JmdnX-95" value="" style="endArrow=classic;html=1;rounded=0;exitX=1;exitY=0.5;exitDx=0;exitDy=0;entryX=0;entryY=0.5;entryDx=0;entryDy=0;" edge="1" parent="1" source="h6YnTUncfw_HH36JmdnX-77" target="h6YnTUncfw_HH36JmdnX-85">
          <mxGeometry width="50" height="50" relative="1" as="geometry">
            <mxPoint x="590" y="833" as="sourcePoint" />
            <mxPoint x="570" y="710" as="targetPoint" />
          </mxGeometry>
        </mxCell>
        <mxCell id="h6YnTUncfw_HH36JmdnX-96" value="" style="endArrow=classic;html=1;rounded=0;entryX=0;entryY=0.5;entryDx=0;entryDy=0;exitX=1;exitY=0.5;exitDx=0;exitDy=0;" edge="1" parent="1" source="h6YnTUncfw_HH36JmdnX-81" target="h6YnTUncfw_HH36JmdnX-85">
          <mxGeometry width="50" height="50" relative="1" as="geometry">
            <mxPoint x="610" y="813" as="sourcePoint" />
            <mxPoint x="710" y="740" as="targetPoint" />
          </mxGeometry>
        </mxCell>
        <mxCell id="h6YnTUncfw_HH36JmdnX-97" value="" style="endArrow=classic;startArrow=classic;html=1;rounded=0;strokeWidth=3;" edge="1" parent="1">
          <mxGeometry width="50" height="50" relative="1" as="geometry">
            <mxPoint x="10" y="849" as="sourcePoint" />
            <mxPoint x="840" y="850" as="targetPoint" />
          </mxGeometry>
        </mxCell>
        <mxCell id="h6YnTUncfw_HH36JmdnX-98" value="&lt;font style=&quot;font-size: 16px;&quot;&gt;&lt;b style=&quot;&quot;&gt;Input Data&lt;/b&gt;&lt;/font&gt;" style="text;html=1;align=center;verticalAlign=middle;resizable=0;points=[];autosize=1;strokeColor=none;fillColor=none;" vertex="1" parent="1">
          <mxGeometry x="30" y="809" width="100" height="30" as="geometry" />
        </mxCell>
        <mxCell id="h6YnTUncfw_HH36JmdnX-99" value="&lt;font style=&quot;font-size: 16px;&quot;&gt;&lt;b style=&quot;&quot;&gt;Map Phase&lt;/b&gt;&lt;/font&gt;" style="text;html=1;align=center;verticalAlign=middle;resizable=0;points=[];autosize=1;strokeColor=none;fillColor=none;" vertex="1" parent="1">
          <mxGeometry x="190" y="809" width="110" height="30" as="geometry" />
        </mxCell>
        <mxCell id="h6YnTUncfw_HH36JmdnX-100" value="&lt;font style=&quot;font-size: 16px;&quot;&gt;&lt;b style=&quot;&quot;&gt;Intermediate&lt;br&gt;files&lt;/b&gt;&lt;/font&gt;" style="text;html=1;align=center;verticalAlign=middle;resizable=0;points=[];autosize=1;strokeColor=none;fillColor=none;" vertex="1" parent="1">
          <mxGeometry x="350" y="799" width="120" height="50" as="geometry" />
        </mxCell>
        <mxCell id="h6YnTUncfw_HH36JmdnX-101" value="&lt;font style=&quot;font-size: 16px;&quot;&gt;&lt;b style=&quot;&quot;&gt;Reduce Phase&lt;/b&gt;&lt;/font&gt;" style="text;html=1;align=center;verticalAlign=middle;resizable=0;points=[];autosize=1;strokeColor=none;fillColor=none;" vertex="1" parent="1">
          <mxGeometry x="605" y="809" width="130" height="30" as="geometry" />
        </mxCell>
        <mxCell id="h6YnTUncfw_HH36JmdnX-102" value="&lt;font style=&quot;font-size: 16px;&quot;&gt;&lt;b style=&quot;&quot;&gt;Output&lt;br&gt;data&lt;/b&gt;&lt;/font&gt;" style="text;html=1;align=center;verticalAlign=middle;resizable=0;points=[];autosize=1;strokeColor=none;fillColor=none;" vertex="1" parent="1">
          <mxGeometry x="750" y="799" width="80" height="50" as="geometry" />
        </mxCell>
        <mxCell id="h6YnTUncfw_HH36JmdnX-103" value="&lt;font style=&quot;font-size: 16px;&quot;&gt;&lt;b style=&quot;&quot;&gt;Shuffle&lt;/b&gt;&lt;/font&gt;" style="text;html=1;align=center;verticalAlign=middle;resizable=0;points=[];autosize=1;strokeColor=none;fillColor=none;" vertex="1" parent="1">
          <mxGeometry x="498" y="809" width="80" height="30" as="geometry" />
        </mxCell>
        <mxCell id="h6YnTUncfw_HH36JmdnX-104" value="" style="endArrow=none;html=1;rounded=0;" edge="1" parent="1">
          <mxGeometry width="50" height="50" relative="1" as="geometry">
            <mxPoint x="150" y="870" as="sourcePoint" />
            <mxPoint x="150" y="830" as="targetPoint" />
          </mxGeometry>
        </mxCell>
        <mxCell id="h6YnTUncfw_HH36JmdnX-105" value="" style="endArrow=none;html=1;rounded=0;" edge="1" parent="1">
          <mxGeometry width="50" height="50" relative="1" as="geometry">
            <mxPoint x="330" y="870" as="sourcePoint" />
            <mxPoint x="330" y="830" as="targetPoint" />
          </mxGeometry>
        </mxCell>
        <mxCell id="h6YnTUncfw_HH36JmdnX-106" value="" style="endArrow=none;html=1;rounded=0;" edge="1" parent="1">
          <mxGeometry width="50" height="50" relative="1" as="geometry">
            <mxPoint x="490" y="870" as="sourcePoint" />
            <mxPoint x="490" y="830" as="targetPoint" />
          </mxGeometry>
        </mxCell>
        <mxCell id="h6YnTUncfw_HH36JmdnX-107" value="" style="endArrow=none;html=1;rounded=0;" edge="1" parent="1">
          <mxGeometry width="50" height="50" relative="1" as="geometry">
            <mxPoint x="590" y="870" as="sourcePoint" />
            <mxPoint x="590" y="830" as="targetPoint" />
          </mxGeometry>
        </mxCell>
        <mxCell id="h6YnTUncfw_HH36JmdnX-108" value="" style="endArrow=none;html=1;rounded=0;" edge="1" parent="1">
          <mxGeometry width="50" height="50" relative="1" as="geometry">
            <mxPoint x="750" y="870" as="sourcePoint" />
            <mxPoint x="750" y="830" as="targetPoint" />
          </mxGeometry>
        </mxCell>
        <mxCell id="h6YnTUncfw_HH36JmdnX-109" value="(a, 1)&lt;br&gt;(a, 5)&lt;br&gt;(c, 3)&lt;br&gt;(c, 6)&lt;div&gt;(c, 2)&lt;/div&gt;&lt;div&gt;(c, 8)&lt;/div&gt;" style="rounded=0;whiteSpace=wrap;html=1;fillColor=#f5f5f5;fontColor=#333333;strokeColor=#666666;" vertex="1" parent="1">
          <mxGeometry x="550" y="614.25" width="40" height="90" as="geometry" />
        </mxCell>
        <mxCell id="h6YnTUncfw_HH36JmdnX-110" value="(b, 2)&lt;div&gt;(b, 7)&lt;/div&gt;" style="rounded=0;whiteSpace=wrap;html=1;fillColor=#f5f5f5;fontColor=#333333;strokeColor=#666666;" vertex="1" parent="1">
          <mxGeometry x="550" y="710.5" width="40" height="33.75" as="geometry" />
        </mxCell>
        <mxCell id="h6YnTUncfw_HH36JmdnX-112" value="(a, 1)&lt;br&gt;(b, 2)&lt;br&gt;(c, 3)" style="rounded=0;whiteSpace=wrap;html=1;fillColor=#f5f5f5;fontColor=#333333;strokeColor=#666666;" vertex="1" parent="1">
          <mxGeometry x="144" y="574" width="30" height="52" as="geometry" />
        </mxCell>
        <mxCell id="h6YnTUncfw_HH36JmdnX-116" value="" style="endArrow=classic;html=1;rounded=0;exitX=1;exitY=0.832;exitDx=0;exitDy=0;exitPerimeter=0;" edge="1" parent="1">
          <mxGeometry width="50" height="50" relative="1" as="geometry">
            <mxPoint x="130" y="679.25" as="sourcePoint" />
            <mxPoint x="190" y="679" as="targetPoint" />
          </mxGeometry>
        </mxCell>
        <mxCell id="h6YnTUncfw_HH36JmdnX-117" value="" style="endArrow=classic;html=1;rounded=0;exitX=1;exitY=0.832;exitDx=0;exitDy=0;exitPerimeter=0;" edge="1" parent="1">
          <mxGeometry width="50" height="50" relative="1" as="geometry">
            <mxPoint x="130" y="759.28" as="sourcePoint" />
            <mxPoint x="190" y="759.03" as="targetPoint" />
          </mxGeometry>
        </mxCell>
        <mxCell id="h6YnTUncfw_HH36JmdnX-113" value="(c, 6)&lt;div&gt;(a, 5)&lt;/div&gt;&lt;div&gt;(c, 2)&lt;/div&gt;" style="rounded=0;whiteSpace=wrap;html=1;fillColor=#f5f5f5;fontColor=#333333;strokeColor=#666666;" vertex="1" parent="1">
          <mxGeometry x="144" y="653.25" width="30" height="52" as="geometry" />
        </mxCell>
        <mxCell id="h6YnTUncfw_HH36JmdnX-114" value="&lt;div&gt;(b, 7)&lt;br&gt;(c, 8)&lt;/div&gt;" style="rounded=0;whiteSpace=wrap;html=1;fillColor=#f5f5f5;fontColor=#333333;strokeColor=#666666;" vertex="1" parent="1">
          <mxGeometry x="144" y="740.88" width="30" height="34.37" as="geometry" />
        </mxCell>
        <mxCell id="h6YnTUncfw_HH36JmdnX-118" value="" style="endArrow=classic;startArrow=classic;html=1;rounded=0;strokeWidth=0.5;startSize=2;endSize=2;jumpSize=7;fillColor=#f8cecc;strokeColor=#b85450;" edge="1" parent="1">
          <mxGeometry width="50" height="50" relative="1" as="geometry">
            <mxPoint x="586.76" y="644" as="sourcePoint" />
            <mxPoint x="586.76" y="618.32" as="targetPoint" />
          </mxGeometry>
        </mxCell>
        <mxCell id="h6YnTUncfw_HH36JmdnX-119" value="" style="endArrow=classic;startArrow=classic;html=1;rounded=0;strokeWidth=0.5;startSize=2;endSize=2;jumpSize=7;fillColor=#f8cecc;strokeColor=#b85450;" edge="1" parent="1">
          <mxGeometry width="50" height="50" relative="1" as="geometry">
            <mxPoint x="586.87" y="702" as="sourcePoint" />
            <mxPoint x="586.87" y="646.41" as="targetPoint" />
          </mxGeometry>
        </mxCell>
        <mxCell id="h6YnTUncfw_HH36JmdnX-120" value="" style="endArrow=classic;startArrow=classic;html=1;rounded=0;strokeWidth=0.5;startSize=2;endSize=2;jumpSize=7;fillColor=#f8cecc;strokeColor=#b85450;" edge="1" parent="1">
          <mxGeometry width="50" height="50" relative="1" as="geometry">
            <mxPoint x="586.81" y="740.2199999999999" as="sourcePoint" />
            <mxPoint x="586.81" y="714.54" as="targetPoint" />
          </mxGeometry>
        </mxCell>
      </root>
    </mxGraphModel>
  </diagram>
</mxfile>
